<svg width="21" height="20" viewBox="0 0 21 20" fill="none" xmlns="http://www.w3.org/2000/svg">
<g id="bx:up-arrow">
<path id="Vector" d="M16.3332 17.5001V2.50005C16.3327 2.34818 16.2908 2.19932 16.212 2.06949C16.1332 1.93965 16.0205 1.83377 15.8861 1.76322C15.7516 1.69268 15.6004 1.66015 15.4488 1.66913C15.2972 1.67812 15.1509 1.72828 15.0257 1.81422L4.19234 9.31422C3.74318 9.62505 3.74318 10.3734 4.19234 10.6851L15.0257 18.1851C15.1506 18.2719 15.297 18.3228 15.4488 18.3322C15.6007 18.3417 15.7522 18.3094 15.887 18.2388C16.0218 18.1682 16.1346 18.062 16.2133 17.9317C16.292 17.8015 16.3334 17.6522 16.3332 17.5001ZM6.13068 10.0001L14.6665 4.09005V15.9101L6.13068 10.0001Z" fill="white" fill-opacity="0.5"/>
</g>
</svg>
