<svg width="208" height="27" viewBox="0 0 208 27" fill="none" xmlns="http://www.w3.org/2000/svg">
<g opacity="0.5">
<path d="M7.10756 7.93121V0.84375H0V7.93121H7.10756Z" fill="white"/>
<path d="M25.7854 17.3812V26.8312H16.6943V24.7117C16.6943 23.7491 16.8767 22.7961 17.2311 21.9069C17.5854 21.0178 18.1048 20.2098 18.7595 19.5293C19.4143 18.8486 20.1917 18.3089 21.0471 17.9405C21.9026 17.5722 22.8195 17.3826 23.7455 17.3826H25.7847L25.7854 17.3812Z" fill="white"/>
<path d="M7.08841 27L25.763 7.28085L25.7377 7.255H25.7856V0H18.6998V0.0489719L18.6745 0.0231264L0.0126212 19.7301H0V26.985H7.07379L7.08841 27Z" fill="white"/>
<path d="M42.4824 26.2702V1.05078H47.1485V12.6798L56.5492 1.05078H62.2446L51.9175 13.4854L62.8964 26.2702H56.9952L47.1485 14.7814V26.2702H42.4824ZM63.5839 26.2702L71.132 1.05078H78.0969L85.6449 26.2702H80.8416L74.117 4.02808H75.009L68.3872 26.2702H63.5839ZM68.1127 21.0162V16.5678H81.1504V21.0162H68.1127ZM88.7192 26.2702V1.05078H93.4539L104.193 17.8638V1.05078H108.927V26.2702H104.193L93.4539 9.45727V26.2702H88.7192ZM111.999 26.2702L119.547 1.05078H126.512L134.06 26.2702H129.256L122.532 4.02808H123.424L116.802 26.2702H111.999ZM116.528 21.0162V16.5678H129.565V21.0162H116.528ZM137.478 26.2702V1.05078H142.144V21.8218H152.78V26.2702H137.478ZM156.04 26.2702V1.05078H160.706V26.2702H156.04ZM165.162 26.2702V25.6748L176.896 5.49921H166.192V1.05078H185.062V1.64624L173.397 21.7868H184.719V26.2702H165.162ZM189.168 26.2702V1.05078H205.294V5.49921H193.834V10.8934H203.235V15.3418H193.834V21.8218H205.294V26.2702H189.168Z" fill="white"/>
</g>
</svg>
