<svg width="21" height="21" viewBox="0 0 21 21" fill="none" xmlns="http://www.w3.org/2000/svg">
<g id="ion:share">
<path id="Vector" d="M15.1875 7.37495H11.125V13.039C11.125 13.2048 11.0592 13.3637 10.9419 13.481C10.8247 13.5982 10.6658 13.664 10.5 13.664C10.3342 13.664 10.1753 13.5982 10.0581 13.481C9.94085 13.3637 9.875 13.2048 9.875 13.039V7.37495H5.8125C5.23253 7.37558 4.67649 7.60624 4.26639 8.01634C3.85629 8.42645 3.62562 8.98248 3.625 9.56245V17.0625C3.62562 17.6424 3.85629 18.1985 4.26639 18.6086C4.67649 19.0187 5.23253 19.2493 5.8125 19.25H15.1875C15.7675 19.2493 16.3235 19.0187 16.7336 18.6086C17.1437 18.1985 17.3744 17.6424 17.375 17.0625V9.56245C17.3744 8.98248 17.1437 8.42645 16.7336 8.01634C16.3235 7.60624 15.7675 7.37558 15.1875 7.37495ZM11.125 3.88394L13.1832 5.94175C13.3014 6.05401 13.4587 6.11567 13.6217 6.11359C13.7847 6.1115 13.9404 6.04583 14.0556 5.93058C14.1709 5.81533 14.2365 5.65962 14.2386 5.49664C14.2407 5.33367 14.1791 5.17632 14.0668 5.05816L10.9418 1.93316C10.8246 1.81604 10.6657 1.75024 10.5 1.75024C10.3343 1.75024 10.1754 1.81604 10.0582 1.93316L6.9332 5.05816C6.82094 5.17632 6.75928 5.33367 6.76137 5.49664C6.76345 5.65962 6.82912 5.81533 6.94437 5.93058C7.05962 6.04583 7.21534 6.1115 7.37831 6.11359C7.54129 6.11567 7.69863 6.05401 7.8168 5.94175L9.875 3.88394V7.37495H11.125V3.88394Z" fill="white" fill-opacity="0.5"/>
</g>
</svg>
