<svg width="21" height="21" viewBox="0 0 21 21" fill="none" xmlns="http://www.w3.org/2000/svg">
<g id="ph:sparkle-fill">
<path id="Vector" d="M16.7502 11.75C16.7518 12.0048 16.6744 12.2539 16.5286 12.4629C16.3828 12.6719 16.1759 12.8306 15.9362 12.9172L11.901 14.4016L10.4167 18.4336C10.3287 18.6724 10.1697 18.8785 9.961 19.0241C9.75228 19.1697 9.50394 19.2477 9.24946 19.2477C8.995 19.2477 8.74665 19.1697 8.53793 19.0241C8.32922 18.8785 8.17018 18.6724 8.08228 18.4336L6.594 14.4062L2.56118 12.9219C2.32238 12.834 2.11628 12.6749 1.9707 12.4662C1.82513 12.2575 1.74707 12.0092 1.74707 11.7547C1.74707 11.5002 1.82513 11.2519 1.9707 11.0432C2.11628 10.8344 2.32238 10.6754 2.56118 10.5875L6.59634 9.10313L8.08072 5.07109C8.16862 4.83229 8.32766 4.62619 8.53637 4.48061C8.74509 4.33504 8.99343 4.25698 9.2479 4.25698C9.50237 4.25698 9.75072 4.33504 9.95943 4.48061C10.1681 4.62619 10.3272 4.83229 10.4151 5.07109L11.8995 9.10625L15.9315 10.5906C16.1708 10.676 16.3779 10.8331 16.5245 11.0407C16.671 11.2482 16.7499 11.4959 16.7502 11.75ZM12.3752 4.25H13.6252V5.5C13.6252 5.66576 13.6911 5.82473 13.8083 5.94194C13.9255 6.05915 14.0845 6.125 14.2502 6.125C14.416 6.125 14.575 6.05915 14.6922 5.94194C14.8094 5.82473 14.8752 5.66576 14.8752 5.5V4.25H16.1252C16.291 4.25 16.45 4.18415 16.5672 4.06694C16.6844 3.94973 16.7502 3.79076 16.7502 3.625C16.7502 3.45924 16.6844 3.30027 16.5672 3.18306C16.45 3.06585 16.291 3 16.1252 3H14.8752V1.75C14.8752 1.58424 14.8094 1.42527 14.6922 1.30806C14.575 1.19085 14.416 1.125 14.2502 1.125C14.0845 1.125 13.9255 1.19085 13.8083 1.30806C13.6911 1.42527 13.6252 1.58424 13.6252 1.75V3H12.3752C12.2095 3 12.0505 3.06585 11.9333 3.18306C11.8161 3.30027 11.7502 3.45924 11.7502 3.625C11.7502 3.79076 11.8161 3.94973 11.9333 4.06694C12.0505 4.18415 12.2095 4.25 12.3752 4.25ZM19.2502 6.75H18.6252V6.125C18.6252 5.95924 18.5594 5.80027 18.4422 5.68306C18.325 5.56585 18.166 5.5 18.0002 5.5C17.8345 5.5 17.6755 5.56585 17.5583 5.68306C17.4411 5.80027 17.3752 5.95924 17.3752 6.125V6.75H16.7502C16.5845 6.75 16.4255 6.81585 16.3083 6.93306C16.1911 7.05027 16.1252 7.20924 16.1252 7.375C16.1252 7.54076 16.1911 7.69973 16.3083 7.81694C16.4255 7.93415 16.5845 8 16.7502 8H17.3752V8.625C17.3752 8.79076 17.4411 8.94973 17.5583 9.06694C17.6755 9.18415 17.8345 9.25 18.0002 9.25C18.166 9.25 18.325 9.18415 18.4422 9.06694C18.5594 8.94973 18.6252 8.79076 18.6252 8.625V8H19.2502C19.416 8 19.575 7.93415 19.6922 7.81694C19.8094 7.69973 19.8752 7.54076 19.8752 7.375C19.8752 7.20924 19.8094 7.05027 19.6922 6.93306C19.575 6.81585 19.416 6.75 19.2502 6.75Z" fill="white" fill-opacity="0.5"/>
</g>
</svg>
